<?xml version="1.0" encoding="UTF-8"?>
<svg width="64px" height="64px" viewBox="0 0 64 64" version="1.1" xmlns="http://www.w3.org/2000/svg" xmlns:xlink="http://www.w3.org/1999/xlink">
    <title>ic_joyjet</title>
    <g id="Page-1" stroke="none" stroke-width="1" fill="none" fill-rule="evenodd">
        <g id="desktop" transform="translate(-136.000000, -51.000000)" fill="#FFFFFF" fill-rule="nonzero">
            <path d="M168,51 C150.314027,51 136,65.3363573 136,83 C136,100.663643 150.336357,115 168,115 C185.663643,115 200,100.663643 200,83 C200,65.3363573 185.685973,51 168,51 L168,51 Z M171.885555,69.3782275 L178.785764,80.1416609 L171.840893,80.1639916 L171.885555,69.3782275 Z M168.089323,56.2030705 C168.267969,56.4040475 170.434054,58.8381019 171.237962,64.2421493 C170.255408,64.4207955 169.183531,64.5324494 168.089323,64.5324494 C166.995115,64.5101186 165.923238,64.4207955 164.940684,64.2421493 C165.722261,58.8381019 167.910677,56.3817167 168.089323,56.2030705 L168.089323,56.2030705 Z M146.138172,93.5401256 L152.658758,93.5401256 C155.226797,93.5401256 157.281228,91.4856943 157.281228,88.9623168 L157.214236,82.5533845 L160.474529,82.5533845 L160.474529,89.9895324 C160.474529,90.0118632 160.407537,91.4633636 160.005583,92.2226099 C159.201675,93.7187718 158.129798,94.8576413 156.722959,95.7062107 C155.182135,96.6441033 153.797627,96.8227495 151.810188,96.8227495 L146.138172,96.8227495 L146.138172,93.5401256 Z M152.658758,100.440335 L146.138172,100.440335 L146.138172,97.2470342 L151.810188,97.2470342 C153.88695,97.2470342 155.31612,97.068388 156.946267,96.0635031 C158.420098,95.1702722 159.536636,93.9644103 160.362875,92.4235869 C160.809491,91.5973482 160.876483,90.0788555 160.876483,90.0118632 L160.876483,82.5757153 L164.181438,82.5757153 L164.181438,88.9846476 C164.159107,95.3042568 159.000698,100.440335 152.658758,100.440335 L152.658758,100.440335 Z M164.159107,80.1639916 L157.191905,80.1416609 L164.24843,69.3782275 L164.159107,80.1639916 Z M168.089323,87.3098395 C168.089323,87.3098395 166.749477,85.6350314 166.57083,82.7543615 C167.1291,82.799023 167.7097,82.8213538 168.2903,82.8213538 C168.692254,82.8213538 169.094208,82.799023 169.473831,82.799023 C169.42917,85.478716 168.089323,87.3098395 168.089323,87.3098395 L168.089323,87.3098395 Z M168.245639,82.3970691 C166.972784,82.3970691 165.722261,82.2854152 164.583391,82.0844382 L164.583391,80.5882763 C165.722261,80.7892533 166.972784,80.9009072 168.245639,80.9009072 C169.362177,80.9009072 170.434054,80.8115841 171.46127,80.6552687 L171.46127,82.1514306 C170.434054,82.307746 169.362177,82.3970691 168.245639,82.3970691 L168.245639,82.3970691 Z M171.46127,80.2086532 C170.389393,80.4096301 169.228193,80.4989532 168.022331,80.521284 C166.8388,80.4989532 165.655269,80.4096301 164.583391,80.2086532 C164.583391,76.457083 164.650384,68.2616888 164.650384,68.239358 C164.650384,66.9218423 164.739707,65.7159805 164.873692,64.6217725 C165.856246,64.8004187 166.950454,64.9120726 168.066992,64.9120726 C169.183531,64.8897418 170.277739,64.8004187 171.260293,64.6217725 C171.394278,65.7159805 171.483601,66.8995115 171.483601,68.239358 C171.505932,68.239358 171.438939,76.457083 171.46127,80.2086532 L171.46127,80.2086532 Z M189.861828,100.440335 L183.341242,100.440335 C176.999302,100.440335 171.818562,95.3042568 171.818562,88.9623168 L171.818562,82.5533845 L175.123517,82.5533845 L175.123517,89.9895324 C175.123517,90.0565248 175.190509,91.5750174 175.637125,92.4012561 C176.463364,93.9644103 177.602233,95.1479414 179.053733,96.0411724 C180.661549,97.0237264 182.11305,97.2247034 184.189812,97.2247034 L189.861828,97.2247034 L189.861828,100.440335 L189.861828,100.440335 Z M189.861828,96.8450803 L184.212142,96.8450803 C182.202373,96.8450803 180.817865,96.6664341 179.299372,95.7285415 C177.892533,94.8799721 176.820656,93.7187718 176.016748,92.2449407 C175.614794,91.4856943 175.547802,90.0118632 175.547802,90.0118632 L175.547802,82.5757153 L178.808095,82.5757153 L178.741103,88.9846476 C178.741103,91.5080251 180.795534,93.5624564 183.363573,93.5624564 L189.884159,93.5624564 L189.884159,96.8450803 L189.861828,96.8450803 Z" id="ic_joyjet"></path>
        </g>
    </g>
</svg>